<svg xmlns="http://www.w3.org/2000/svg" viewBox="0 0 554.74 440.57"><defs><style>.cls-1{fill:#f7931a;}.cls-2{fill:#f9be2d;}.cls-3{fill:#494949;}.cls-4{fill:#adadad;}</style></defs><title>Asset 7</title><g id="Layer_2" data-name="Layer 2"><g id="Layer_1-2" data-name="Layer 1"><g id="Layer_2-2" data-name="Layer 2"><path class="cls-1" d="M341.63,260.88c-7.32-16.3-14.41-32.22-21.5-48.06-.76-1.66-1.74-2-3.47-1.81-5.89.9-50.27,9.28-57,10.26,2,13,4,25.8,6,38.85,8.75-2.56,17.05-5.05,25.73-7.62-.91,3-1.74,5.81-2.64,8.6-1.44,4.38-2.87,8.75-4.23,13.21a2.54,2.54,0,0,1-2.86,2c-11.55-.07-23.09,0-34.63-.15a4.8,4.8,0,0,1-3.4-1.81c-9.88-13.05-19.61-26.18-29.34-39.31-1.89-2.48-3.78-5-5.59-7.54-1.05-1.51-2-1.66-3.62-.38q-31.45,24.67-63.07,49.19a4.42,4.42,0,0,1-2.94.83c-7.4-.68-14.86-1.51-22.26-2.19S102,273.7,94.61,273c-6-.52-12-1.13-18.11-2.18,2.34-.83,4.6-1.74,6.94-2.49l33.72-11.55c2-.68,4.08-1.36,6-2.19a4.9,4.9,0,0,0,2.26-2q11.65-22.07,23.31-44.21c1.82-3.4,1.82-3.4-1.5-5.51-20-12.67-39.91-25.42-60.06-37.87-4.15-2.57-9-4.08-13.58-5.89-11.92-4.75-24.14-8.9-35.76-14.26-10.79-4.9-21-11-31.38-16.82A5.61,5.61,0,0,1,4.3,124.7C2.79,118.89,1.43,113,0,106.82c1,0,1.81-.07,2.72,0,11.16.83,22.33,1.51,33.49,2.57,1.89.15,3.7,1.58,5.51,2.64,3.09,1.73,6,4,9.2,5.28a67.26,67.26,0,0,0,12.75,3.77,167.64,167.64,0,0,1,30.26,9c17.58,7,35.46,13.5,52.88,20.82,6,2.49,11.24,6.79,16.6,10.64,14.64,10.33,29.05,20.9,43.61,31.23a6.94,6.94,0,0,0,3.69,1c11.32.15,22.56.15,33.88.23,14.63.15,29.2.3,43.83.53h2.87c.15-.23.22-.46.38-.76-4.46-3.62-9-7.24-13.43-10.86.07-.23.22-.53.3-.76,14.26,2.87,28.44,5.74,42.7,8.6a3.88,3.88,0,0,1,.53-.67c-3.93-3.78-7.85-7.47-12.38-11.85,2.19.08,3.7.15,5.21.23,4.83.22,9.58.37,14.41.68,7.92.45,15.84,1,23.76,1.5a9.8,9.8,0,0,0,6.27-1.5c17.5-10.87,35.15-21.51,52.73-32.37,3.32-2,7-1.73,10.56-2.11,9.59-1,19.17-1.81,28.67-2.64a11.25,11.25,0,0,0,1.66-.46c-7.62-9.05-15-17.8-22.33-26.63l.23-.68c1.58,0,3.24.08,4.83,0,10.33-.3,20.74-.67,31.08-1,9.28-.3,18.56-.52,27.84-.83,4.6-.15,9.28-.52,13.88-.68a4.65,4.65,0,0,1,2.64.91c13.73,10.79,27.31,21.58,41,32.44.82.68,1.58,1.43,2.94,2.57H463.9s-.47,32.56-.28,40.66c.83,2,1.58,2.79,4,2.11,5.58-1.66,11.31-2.94,17.05-4.15a3.37,3.37,0,0,1,2.79,1.13Q498,201,508.36,214.71c2.41,3.16,4.83,6.26,7.09,9.5a4.35,4.35,0,0,1,.75,2.87c-1.58,9.58-3.32,19.24-5.05,28.82a29,29,0,0,1-1,3.39c-1.81-2-3.4-3.85-5-5.66-6.72-7.92-13.35-15.91-20.07-23.84-3.09-3.62-3.17-3.62-8.3-2.56-7.92,1.66-28.44,6-30.7,6.79-4.3,1.43-8.3-.15-12.38-1.21-7.09-1.81-52.81-14.11-56.81-15.16-2.33,18.41-4.6,36.59-6.94,55.07q-27.6.9-55,1.74c-.08-.15-.16-.38-.23-.53C323.6,269.63,332.5,265.33,341.63,260.88Z"/><path class="cls-2" d="M441.57,138.05c-5.05,0-10-.15-14.86,0-4.45.16-8.9.46-13.28.91a11.87,11.87,0,0,0-4.07,1.66c-6.42,3.39-12.83,6.94-19.24,10.34-11.92,6.41-23.84,12.82-35.84,19.08a10.93,10.93,0,0,1-4.9,1.29c-15.54-.16-31-.38-46.55-.61-3.7-.07-3.92.38-2.49,3.77.53,1.21,1.06,2.42,1.51,3.62a5.49,5.49,0,0,1,0,1.21c-2-.15-3.77-.22-5.58-.53-4.91-.68-9.81-1.43-14.71-2.18-4.61-.76-9.28-1.59-13.89-2.19a11.33,11.33,0,0,0-3.39.6c.6.83,1.06,1.81,1.73,2.57,2.8,3,5.66,5.88,8.53,8.82-.15.31-.23.61-.38.91-5-.3-10-.53-14.94-.83-1-.08-2-.23-2.94-.23-13.5-.07-27.08-.3-40.59-.07-4.52.07-8.14-.91-11.54-3.85-3.17-2.79-6.71-5.13-10-7.77s-6.11-5.36-9.35-7.85-6.87-4.9-10.26-7.39c-1.21-.91-2.19-2.19-3.47-3.09-1.06-.83-2.42-1.29-3.47-2.12-3-2.18-5.89-4.67-9.06-6.48-2.41-1.36-5.35-1.89-8.07-2.95-8.07-3.09-16.22-6.26-24.22-9.43-5.5-2.18-10.94-4.6-16.44-6.79s-11.17-4-16.68-6.18c-7.39-3-15.16-3.7-22.86-5.06-4-.68-7.92-1.51-11.84-2.34-4.53-1-7.32-4.83-10.94-7.24-1.13-.75-2.11-1.73-3.7-3,3-1,5.51-1.81,7.92-2.79a79.1,79.1,0,0,0,8.08-3.77C63.6,96,67.3,96,71.52,97.09c5.21,1.36,10.64,1.66,15.84,2.94a111.91,111.91,0,0,1,14.49,4.83c11.54,4.53,23,9.28,34.48,14,3.17,1.28,6.26,2.71,9.43,3.77A12.39,12.39,0,0,0,151,123c4-.53,7.92-1.51,11.92-2.19,5.88-1,11.69-2,17.58-3,6.26-1.06,12.52-2,18.78-3.1,5.58-1,11.17-2.11,16.75-2.94,6.56-1.06,13.2-1.81,19.77-2.94,3.92-.68,7.84-1.74,11.77-2.49s7.84-1.28,11.69-2c6-1.06,11.84-2.12,17.8-3.1a14.13,14.13,0,0,1,3.48-.3c7.16.53,14.33,1.21,21.5,1.74,4.15.3,8.3.37,12.37.68,8.9.67,17.73,1.5,26.63,2.33h.23c6.56.38,13.2.68,19.76,1.14,6.27.45,12.53,1,18.79,1.58,2.71.23,5.43.53,8.15.75,6,.38,12.07.68,18,1.14,3.85.3,7.77.45,11.62,1,1.2.15,2.33,1.44,3.24,2.42,4.83,5.35,9.51,10.71,14.18,16.14C437.42,132.62,439.31,135.26,441.57,138.05Z"/></g><path class="cls-3" d="M94.72,281.94l13,51.8,12.9-49.5,18.09,1.86v66.62H124.78V334.16l1.27-28.59-13.71,47.15h-9.42L89.21,305.57l1.27,28.59v18.56H76.63V280Z"/><path class="cls-3" d="M181.06,338.68H162.17l-3.67,14H143.85l21.43-68.58H178l21.58,68.58H184.74Zm-15.87-11.54H178l-6.41-24.44Z"/><path class="cls-3" d="M230.66,334.73c0-2.8-.72-4.91-2.14-6.34s-4-2.91-7.8-4.45q-10.32-3.92-14.84-9.16a18.43,18.43,0,0,1-4.52-12.41,17.39,17.39,0,0,1,6.15-13.92q6.13-5.25,15.61-5.26a23.33,23.33,0,0,1,11.26,2.67,18.48,18.48,0,0,1,7.61,7.51,22.57,22.57,0,0,1,2.66,11h-13.8c0-3.2-.69-5.64-2-7.32a7.19,7.19,0,0,0-5.91-2.52,7.41,7.41,0,0,0-5.66,2.14,8.05,8.05,0,0,0-2,5.77,7.09,7.09,0,0,0,2.26,5.11q2.26,2.28,8,4.73,10,3.63,14.58,8.91t4.54,13.42q0,9-5.7,14t-15.5,5a26.69,26.69,0,0,1-12.1-2.73,20.53,20.53,0,0,1-8.55-7.82,22.67,22.67,0,0,1-3.09-12h13.9q0,5.94,2.31,8.62t7.53,2.68Q230.66,342.4,230.66,334.73Z"/><path class="cls-3" d="M296.52,295.68h-17v57h-13.9v-57H249V284.14h47.53Z"/><path class="cls-3" d="M347.65,324.6q0,13.8-6.52,21.43T323,353.66q-11.53,0-18.13-7.56t-6.69-21.17V313.2q0-14.13,6.55-22.07t18.18-7.94q11.44,0,18,7.8t6.69,21.88Zm-13.9-11.49q0-9.28-2.63-13.81a9.75,9.75,0,0,0-16.35-.16q-2.64,4.35-2.73,13.26v12.2q0,9,2.68,13.26t8.29,4.26a8.89,8.89,0,0,0,8.06-4.17q2.64-4.17,2.68-12.93Z"/><path class="cls-3" d="M354.69,352.72V284.14h18.14q12,0,19.15,7.63t7.28,20.91V323.8q0,13.51-7.14,21.22t-19.67,7.7Zm13.85-57v45.55h4.15q6.92,0,9.75-3.65t3-12.6V313.06q0-9.62-2.69-13.4t-9.14-4Z"/><path class="cls-3" d="M454.58,324.6q0,13.8-6.52,21.43T430,353.66q-11.55,0-18.14-7.56t-6.69-21.17V313.2q0-14.13,6.55-22.07t18.18-7.94q11.44,0,18,7.8t6.69,21.88Zm-13.89-11.49q0-9.28-2.64-13.81a9.75,9.75,0,0,0-16.35-.16q-2.64,4.35-2.73,13.26v12.2q0,9,2.69,13.26t8.29,4.26A8.87,8.87,0,0,0,438,338q2.64-4.17,2.69-12.93Z"/><path class="cls-3" d="M509.58,352.72H495.73l-20.25-45v45H461.63V284.14h13.85l20.3,45v-45h13.8Z"/><path class="cls-3" d="M80.5,91.88c2.71.38,5.51.83,8.3,1.51a112.17,112.17,0,0,1,15.39,5.06c3.62,1.44,7.27,2.91,10.92,4.39,7.86-.6,14-2.6,18.34-6q7.73-6.14,7.73-18.36A18.58,18.58,0,0,0,137.7,67a17.51,17.51,0,0,0-10-6.4,17.29,17.29,0,0,0,8.73-6.73,19.79,19.79,0,0,0,3-11q0-11.19-8.36-17.07t-24.41-5.89H76.78v71.4C78,91.52,79.22,91.7,80.5,91.88ZM96.82,35.33h9.82q6.74,0,9.76,2.32t3,7.59q0,4.57-2.8,6.92t-9.36,2.41H96.82Zm0,32.37h14.05q10.32.06,10.33,10.45a8.67,8.67,0,0,1-2.91,7q-2.91,2.49-8.34,2.49H96.82Z"/><path class="cls-3" d="M170.51,103h-20V19.91h20Z"/><path class="cls-3" d="M248.05,35.39h-25V103h-20V35.39h-24.5V19.91h69.49Z"/><path class="cls-3" d="M428.18,103h-20V19.91h20Z"/><path class="cls-3" d="M509.67,103H489.74L460.28,51.32V103h-20V19.91h20l29.4,51.73V19.91h20Z"/><path class="cls-3" d="M262.55,96.93l3.39-.6c3.39-.6,6.71-1.13,10.11-1.73a30.31,30.31,0,0,1,3.92-.38c.38,0,.76.08,1.13.08,3.4.22,6.87.53,10.26.83l11.24.9c1.89.15,3.78.23,5.74.3l.72,0a27.24,27.24,0,0,0,5.45-6.14,30.38,30.38,0,0,0,4.68-15.34H299.27Q299,82,295.38,85.23t-10.56,3.25q-8.16,0-11.5-5.71t-3.34-19V57.88q.16-12.27,3.65-17.87t11-5.59q7.37,0,11,3.31t3.82,10.9h20q-1.25-14-10.44-22t-24.33-8a34.13,34.13,0,0,0-18.49,5,32.19,32.19,0,0,0-12.25,14.16,50.26,50.26,0,0,0-4.26,21.38v4.11q0,19.47,9.43,30.15A30.74,30.74,0,0,0,262.55,96.93Z"/><path class="cls-3" d="M343.72,99.14c1.4.08,2.78.16,4.15.21,4.53.23,9.28.53,13.88.83s9.06.76,13.43,1.13l1.92.16a32.89,32.89,0,0,0,17.46-16.75,49.16,49.16,0,0,0,4.51-21.53V59.37a47.75,47.75,0,0,0-4.66-21.27,33.78,33.78,0,0,0-12.87-14.3,35.59,35.59,0,0,0-18.84-5,36,36,0,0,0-19,5.08,33.29,33.29,0,0,0-12.85,14.42,49.2,49.2,0,0,0-4.48,21.55V64.5a47.6,47.6,0,0,0,4.82,20.84A33.33,33.33,0,0,0,343.72,99.14Zm3-42.06q.86-22.61,15.93-22.61a13.25,13.25,0,0,1,11.84,6.43q4.14,6.42,4.14,18.81v3.82q0,12.1-4.16,18.56A14.09,14.09,0,0,1,350.77,82q-4.06-6.56-4.06-18.78Z"/><rect class="cls-3" x="76.63" y="362.73" width="432.95" height="10"/><rect class="cls-3" x="76.63" width="432.95" height="10"/><path class="cls-4" d="M118.54,415.58a21.25,21.25,0,0,1-1.39,7.05,11.46,11.46,0,0,1-3.51,5,8.16,8.16,0,0,1-5.19,1.75,6.18,6.18,0,0,1-4.09-1.32,6.39,6.39,0,0,1-2.09-3.7q-2.8,5-7.71,5a5.84,5.84,0,0,1-5.41-3.13q-1.79-3.14-1.32-8.44a22.52,22.52,0,0,1,1.92-7.52,13.36,13.36,0,0,1,4-5.15,8.67,8.67,0,0,1,5.29-1.85,10,10,0,0,1,3.49.56,12.58,12.58,0,0,1,3.5,2.24l-1.32,14.77a7.56,7.56,0,0,0,.76,4.66,3.54,3.54,0,0,0,3.27,1.66,5.94,5.94,0,0,0,5.17-3.12,17.15,17.15,0,0,0,2.21-8.46q.49-10.48-4-15.78t-13.56-5.3a18.22,18.22,0,0,0-9.84,2.73A19,19,0,0,0,81.82,405,28,28,0,0,0,79,416.48,26.57,26.57,0,0,0,80.7,428a16.09,16.09,0,0,0,6.13,7.62,17.5,17.5,0,0,0,9.77,2.67,19.34,19.34,0,0,0,4.68-.57,14.82,14.82,0,0,0,3.86-1.48l.8,2.07a13.17,13.17,0,0,1-4.11,1.64,21.92,21.92,0,0,1-5.33.66,20.56,20.56,0,0,1-11.13-2.91,17.71,17.71,0,0,1-7-8.38,29.43,29.43,0,0,1-2-12.8,30.2,30.2,0,0,1,3.17-12.74A20.77,20.77,0,0,1,98.7,392.1a21.33,21.33,0,0,1,11.18,2.76,16.48,16.48,0,0,1,6.78,8.06A29.72,29.72,0,0,1,118.54,415.58Zm-28,5.88a7.45,7.45,0,0,0,1.45,4,3.8,3.8,0,0,0,3.08,1.41q4.79,0,7.06-6.61l1.17-13.39a6.79,6.79,0,0,0-4.09-1.27,6.54,6.54,0,0,0-5,2.3,14,14,0,0,0-3.09,6.33A20.19,20.19,0,0,0,90.57,421.46Z"/><path class="cls-4" d="M146.75,415.14q0,6.54-2.9,10.39a9.26,9.26,0,0,1-7.79,3.84,10.06,10.06,0,0,1-8.85-4.35l-.13,3.83h-2.9V389.1h3.08v15.81a9.74,9.74,0,0,1,8.75-4.58,9.35,9.35,0,0,1,7.85,3.79q2.88,3.79,2.89,10.55Zm-3.11-.55q0-5.54-2.15-8.55a7,7,0,0,0-6.05-3,8.49,8.49,0,0,0-5.05,1.47,8.88,8.88,0,0,0-3.13,4.28V421.4a8.3,8.3,0,0,0,8.23,5.28,7,7,0,0,0,6-3Q143.64,420.62,143.64,414.59Z"/><path class="cls-4" d="M151.3,392.76a2.09,2.09,0,0,1,.57-1.48,2,2,0,0,1,1.56-.6,2,2,0,0,1,2.14,2.08,2,2,0,0,1-.58,1.47,2.11,2.11,0,0,1-1.56.59,2.08,2.08,0,0,1-1.56-.59A2,2,0,0,1,151.3,392.76ZM155,428.85h-3.1v-28H155Z"/><path class="cls-4" d="M166.51,393.68v7.17h5.8v2.54h-5.8v18.68a5.86,5.86,0,0,0,.84,3.47,3.26,3.26,0,0,0,2.81,1.14,19.65,19.65,0,0,0,2.51-.26l.13,2.51a10.09,10.09,0,0,1-3.31.44,5.52,5.52,0,0,1-4.63-1.85,8.7,8.7,0,0,1-1.45-5.45V403.39h-5.15v-2.54h5.15v-7.17Z"/><path class="cls-4" d="M185.94,426.76a8.14,8.14,0,0,0,5.42-1.83,6.42,6.42,0,0,0,2.37-4.72h3a8.75,8.75,0,0,1-1.61,4.67,10.05,10.05,0,0,1-3.92,3.3,11.87,11.87,0,0,1-5.24,1.19,10.83,10.83,0,0,1-8.73-3.83q-3.22-3.82-3.22-10.3v-.93a17.63,17.63,0,0,1,1.44-7.33,11.18,11.18,0,0,1,4.16-4.91,11.43,11.43,0,0,1,6.33-1.74,10.78,10.78,0,0,1,7.59,2.75,10,10,0,0,1,3.2,7.22h-3a7.5,7.5,0,0,0-7.81-7.33,7.71,7.71,0,0,0-6.51,3q-2.32,3-2.32,8.49v.9c0,3.58.77,6.36,2.32,8.36A7.77,7.77,0,0,0,185.94,426.76Z"/><path class="cls-4" d="M199.6,414.44a16.58,16.58,0,0,1,1.57-7.28,11.78,11.78,0,0,1,10.91-6.83,11.56,11.56,0,0,1,9.06,3.92q3.47,3.93,3.46,10.39v.65A16.65,16.65,0,0,1,223,422.6a11.74,11.74,0,0,1-4.41,5,12.15,12.15,0,0,1-6.5,1.76,11.56,11.56,0,0,1-9-3.92q-3.48-3.93-3.48-10.39Zm3.11.85a12.7,12.7,0,0,0,2.6,8.24,8.78,8.78,0,0,0,13.61,0,13.07,13.07,0,0,0,2.6-8.5v-.59a14.18,14.18,0,0,0-1.19-5.88,9.62,9.62,0,0,0-3.33-4.13,8.61,8.61,0,0,0-4.92-1.46,8.31,8.31,0,0,0-6.76,3.25,13.17,13.17,0,0,0-2.61,8.5Z"/><path class="cls-4" d="M228.74,392.76a2.09,2.09,0,0,1,.57-1.48,2,2,0,0,1,1.56-.6,2,2,0,0,1,2.14,2.08,2,2,0,0,1-.58,1.47,2.11,2.11,0,0,1-1.56.59,2.08,2.08,0,0,1-1.56-.59A2,2,0,0,1,228.74,392.76Zm3.65,36.09h-3.1v-28h3.1Z"/><path class="cls-4" d="M241.67,400.85l.11,4.79a11.1,11.1,0,0,1,3.93-3.95,10.3,10.3,0,0,1,5.2-1.36c3,0,5.24.85,6.71,2.54s2.2,4.23,2.22,7.61v18.37h-3.08v-18.4a8.55,8.55,0,0,0-1.59-5.59c-1-1.22-2.71-1.84-5-1.84a7.82,7.82,0,0,0-5.08,1.8,10.54,10.54,0,0,0-3.28,4.86v19.17h-3.08v-28Z"/><path class="cls-4" d="M269,405.59a11,11,0,0,1,3.91-3.89,10.26,10.26,0,0,1,5.2-1.37q4.5,0,6.7,2.54t2.23,7.61v18.37h-3.08v-18.4q0-3.75-1.6-5.59c-1-1.22-2.71-1.84-5-1.84a7.84,7.84,0,0,0-5.09,1.8,10.6,10.6,0,0,0-3.27,4.86v19.17H265.9V389.1H269Z"/><path class="cls-4" d="M310.64,428.85a14.77,14.77,0,0,1-.6-3.91,10.74,10.74,0,0,1-4.15,3.28,12.86,12.86,0,0,1-5.35,1.15,9.37,9.37,0,0,1-6.53-2.25,7.32,7.32,0,0,1-2.5-5.7,7.51,7.51,0,0,1,3.41-6.47c2.26-1.58,5.43-2.38,9.48-2.38H310v-3.18a6.13,6.13,0,0,0-1.85-4.72,7.66,7.66,0,0,0-5.4-1.72,8.48,8.48,0,0,0-5.36,1.65,4.94,4.94,0,0,0-2.12,4l-3.1,0a7.2,7.2,0,0,1,3.1-5.78,12,12,0,0,1,7.63-2.45,10.9,10.9,0,0,1,7.39,2.34,8.43,8.43,0,0,1,2.79,6.54v13.25a16.44,16.44,0,0,0,.85,6.08v.31Zm-9.73-2.22a10.32,10.32,0,0,0,5.55-1.51,8.85,8.85,0,0,0,3.56-4V415h-5.54a13.89,13.89,0,0,0-7.25,1.7,5.08,5.08,0,0,0-2.61,4.52,5,5,0,0,0,1.75,3.9A6.54,6.54,0,0,0,300.91,426.63Z"/><path class="cls-4" d="M329.75,426.76a8.14,8.14,0,0,0,5.42-1.83,6.42,6.42,0,0,0,2.37-4.72h3a8.75,8.75,0,0,1-1.61,4.67,10.05,10.05,0,0,1-3.92,3.3,11.84,11.84,0,0,1-5.24,1.19,10.83,10.83,0,0,1-8.73-3.83q-3.22-3.82-3.22-10.3v-.93a17.47,17.47,0,0,1,1.45-7.33,11.1,11.1,0,0,1,4.15-4.91,11.43,11.43,0,0,1,6.33-1.74,10.78,10.78,0,0,1,7.59,2.75,10,10,0,0,1,3.2,7.22h-3a7.5,7.5,0,0,0-7.81-7.33,7.71,7.71,0,0,0-6.51,3q-2.33,3-2.32,8.49v.9c0,3.58.77,6.36,2.32,8.36A7.77,7.77,0,0,0,329.75,426.76Z"/><path class="cls-4" d="M351.68,414.75l-3.54,3.41v10.69H345V389.1h3.11v25.44l2.92-3.16,10.72-10.53h3.9l-11.87,11.8,12.91,16.2H363Z"/><path class="cls-4" d="M378.62,429.37a12.15,12.15,0,0,1-6.45-1.76,12,12,0,0,1-4.5-4.91,15.24,15.24,0,0,1-1.6-7.05v-1.11a16.4,16.4,0,0,1,1.57-7.27,12.41,12.41,0,0,1,4.36-5.09,10.77,10.77,0,0,1,6.05-1.85,10.11,10.11,0,0,1,8.09,3.48q3,3.48,3,9.51v1.74h-20v.59a11.7,11.7,0,0,0,2.73,7.93,8.67,8.67,0,0,0,6.87,3.18,10.16,10.16,0,0,0,4.39-.91,9.61,9.61,0,0,0,3.45-2.9l1.94,1.48A11.3,11.3,0,0,1,378.62,429.37Zm-.57-26.4a7.74,7.74,0,0,0-5.88,2.56,11.88,11.88,0,0,0-2.92,6.89h16.8v-.34a10.34,10.34,0,0,0-2.3-6.57A7.15,7.15,0,0,0,378.05,403Z"/><path class="cls-4" d="M406.43,403.49a11.54,11.54,0,0,0-2.09-.18,7.56,7.56,0,0,0-4.91,1.62,8.8,8.8,0,0,0-2.86,4.69v19.23h-3.08v-28h3l.05,4.45a8.24,8.24,0,0,1,7.9-5,5,5,0,0,1,2,.34Z"/><path class="cls-4" d="M426.25,421.73a4.41,4.41,0,0,0-1.85-3.7,14.17,14.17,0,0,0-5.57-2.18A25.54,25.54,0,0,1,413,414a7.78,7.78,0,0,1-3.05-2.5,6.29,6.29,0,0,1-1-3.57,6.69,6.69,0,0,1,2.77-5.48,11.2,11.2,0,0,1,7.09-2.16,11.47,11.47,0,0,1,7.52,2.32,7.43,7.43,0,0,1,2.84,6H426.1A5,5,0,0,0,424,404.6a9.28,9.28,0,0,0-10.09-.27,4.2,4.2,0,0,0-1.85,3.53,3.81,3.81,0,0,0,1.54,3.25,16.32,16.32,0,0,0,5.61,2.11,26.09,26.09,0,0,1,6.11,2,7.86,7.86,0,0,1,3,2.61,7.2,7.2,0,0,1-1.88,9.37,12.25,12.25,0,0,1-7.47,2.12A12.54,12.54,0,0,1,411.1,427a7.3,7.3,0,0,1-3-6h3.11a5.37,5.37,0,0,0,2.29,4.23,9.33,9.33,0,0,0,5.57,1.52,8.8,8.8,0,0,0,5.23-1.43A4.27,4.27,0,0,0,426.25,421.73Z"/><path class="cls-4" d="M434.27,427a2.17,2.17,0,0,1,.58-1.54,2.11,2.11,0,0,1,1.62-.64,2.15,2.15,0,0,1,1.63.64,2.18,2.18,0,0,1,.59,1.54,2,2,0,0,1-.59,1.49,2.27,2.27,0,0,1-1.63.58,2.23,2.23,0,0,1-1.62-.58A2,2,0,0,1,434.27,427Z"/><path class="cls-4" d="M442.77,414.44a16.58,16.58,0,0,1,1.56-7.28,11.78,11.78,0,0,1,10.91-6.83,11.53,11.53,0,0,1,9.06,3.92q3.46,3.93,3.47,10.39v.65a16.51,16.51,0,0,1-1.57,7.31,11.61,11.61,0,0,1-4.41,5,12.13,12.13,0,0,1-6.5,1.76,11.53,11.53,0,0,1-9-3.92q-3.48-3.93-3.48-10.39Zm3.1.85a12.7,12.7,0,0,0,2.6,8.24,8.79,8.79,0,0,0,13.62,0,13.13,13.13,0,0,0,2.6-8.5v-.59a14.34,14.34,0,0,0-1.19-5.88,9.71,9.71,0,0,0-3.34-4.13,8.56,8.56,0,0,0-4.92-1.46,8.28,8.28,0,0,0-6.75,3.25,13.17,13.17,0,0,0-2.62,8.5Z"/><path class="cls-4" d="M485.4,403.49a11.54,11.54,0,0,0-2.09-.18,7.58,7.58,0,0,0-4.91,1.62,8.87,8.87,0,0,0-2.86,4.69v19.23h-3.08v-28h3l.05,4.45a8.24,8.24,0,0,1,7.9-5,5,5,0,0,1,2,.34Z"/><path class="cls-4" d="M486.67,414.59q0-6.57,2.91-10.41a9.4,9.4,0,0,1,7.91-3.85,9.75,9.75,0,0,1,8.7,4.56l.15-4h2.9v27.43a11.87,11.87,0,0,1-3,8.57A10.85,10.85,0,0,1,498,440a12.5,12.5,0,0,1-5.58-1.31,10.82,10.82,0,0,1-4.18-3.48l1.74-1.87a9.78,9.78,0,0,0,7.81,4,8,8,0,0,0,6.06-2.29,9.11,9.11,0,0,0,2.25-6.35v-3.52a10,10,0,0,1-8.67,4.14,9.36,9.36,0,0,1-7.82-3.88q-2.94-3.89-2.95-10.48Zm3.13.55q0,5.36,2.15,8.44a6.93,6.93,0,0,0,6.06,3.1,8.28,8.28,0,0,0,8.1-5.13v-13a8.88,8.88,0,0,0-3.13-4.11,8.48,8.48,0,0,0-4.92-1.41,7,7,0,0,0-6.08,3.07C490.53,408.14,489.8,411.15,489.8,415.14Z"/></g></g></svg>